<svg id="Layer_1" data-name="Layer 1" xmlns="http://www.w3.org/2000/svg" viewBox="0 0 1024 1024"><defs><style>.cls-1{fill:#fff;}.cls-2{fill:#352220;}.cls-3{fill:#eadfd0;}.cls-4{fill:#c1b29f;}.cls-5{fill:#81685d;}.cls-6{fill:#5e433b;}.cls-7{fill:#705449;}.cls-8{fill:#352014;}.cls-9{fill:#5b4139;}.cls-10{fill:#efe0cb;}.cls-11{fill:#4c352e;}.cls-12{fill:#d6cbbf;}.cls-13{fill:#93786f;}.cls-14{fill:#563e37;}</style></defs><title>Animal 01</title><rect class="cls-1" width="1024" height="1024"/><rect class="cls-2" y="977" width="1024" height="47"/><path class="cls-1" d="M357.52,991.43H361a10.22,10.22,0,0,1,6.67,2.13,7.31,7.31,0,0,1,2.64,6.08,7.59,7.59,0,0,1-2.62,6.23,10.26,10.26,0,0,1-6.75,2.16h-3.38Zm2.08,14.71h.72a14,14,0,0,0,3-.32,6.9,6.9,0,0,0,2.5-1.08,5.47,5.47,0,0,0,1.71-2,6.47,6.47,0,0,0,.64-3,6.8,6.8,0,0,0-.63-3.05,4.82,4.82,0,0,0-1.75-2,8.17,8.17,0,0,0-2.48-1.05,12.82,12.82,0,0,0-3-.34h-.72Z"/><path class="cls-1" d="M373.32,1003.21a3.8,3.8,0,0,0,.88,2.4,2.78,2.78,0,0,0,2.22,1,3,3,0,0,0,1.78-.49,5.13,5.13,0,0,0,1.31-1.51l1.67,1a5.33,5.33,0,0,1-2,2.06,5.39,5.39,0,0,1-2.79.76,4.77,4.77,0,0,1-3.7-1.54,5.71,5.71,0,0,1-1.36-3.88,6.14,6.14,0,0,1,1.29-4,4.59,4.59,0,0,1,3.73-1.53A4.31,4.31,0,0,1,380,999a6.13,6.13,0,0,1,1.23,3.95v.31Zm5.88-1.5a3.1,3.1,0,0,0-.91-1.88,2.74,2.74,0,0,0-1.93-.7,2.9,2.9,0,0,0-1.07.19,3.09,3.09,0,0,0-.89.53,3.69,3.69,0,0,0-.63.84,3.23,3.23,0,0,0-.34,1Z"/><path class="cls-1" d="M387,1000.09a1.42,1.42,0,0,0-1.32-.91,1.12,1.12,0,0,0-.75.29,1,1,0,0,0-.33.72.93.93,0,0,0,.25.67,2.59,2.59,0,0,0,.69.52l.45.21.5.23a1.48,1.48,0,0,0,.31.13.63.63,0,0,1,.2.09,5.87,5.87,0,0,1,1.74,1.17,2.46,2.46,0,0,1,.64,1.77,3.23,3.23,0,0,1-1.06,2.44,3.5,3.5,0,0,1-2.49,1,3.88,3.88,0,0,1-1.14-.17,4,4,0,0,1-1-.46,3.9,3.9,0,0,1-.84-.73,3.18,3.18,0,0,1-.56-1l1.7-.77a2.13,2.13,0,0,0,1.87,1.32,1.54,1.54,0,0,0,.86-.25,1.49,1.49,0,0,0,.58-.64,1.18,1.18,0,0,0,.08-.83,1.5,1.5,0,0,0-.68-.86l-1.94-1a6.39,6.39,0,0,1-.88-.53,3.44,3.44,0,0,1-.62-.56,2.12,2.12,0,0,1-.36-.66,2.7,2.7,0,0,1-.12-.86,2.84,2.84,0,0,1,.88-2.11,3.11,3.11,0,0,1,5,.93Z"/><path class="cls-1" d="M394.13,993a1.33,1.33,0,0,1-1.36,1.33,1.3,1.3,0,0,1-1-.38,1.32,1.32,0,0,1-.4-1,1.42,1.42,0,0,1,.4-1,1.36,1.36,0,0,1,1.93,0A1.37,1.37,0,0,1,394.13,993Zm-.38,15h-2V997.72h2Z"/><path class="cls-1" d="M406.58,1007.84a7.87,7.87,0,0,1-1.11,4.51c-.72,1.06-2,1.58-3.91,1.58a5.08,5.08,0,0,1-3.57-1.25,4.52,4.52,0,0,1-1.41-3.41h2a2.72,2.72,0,0,0,.85,2.14,3.19,3.19,0,0,0,2.23.76,2.55,2.55,0,0,0,2.33-1,5.32,5.32,0,0,0,.62-2.79v-2h0a4.5,4.5,0,0,1-1.53,1.45,3.9,3.9,0,0,1-2,.52,4.42,4.42,0,0,1-3.61-1.61,6.08,6.08,0,0,1-1.33-4,5.59,5.59,0,0,1,1.35-3.79,4.35,4.35,0,0,1,3.5-1.6,4.07,4.07,0,0,1,3.59,2.07h0v-1.77h2Zm-5.22-1.22a3,3,0,0,0,2.44-1.08,4.06,4.06,0,0,0,.9-2.66,4,4,0,0,0-.9-2.63,3,3,0,0,0-2.44-1.07,2.9,2.9,0,0,0-2.38,1.1,4,4,0,0,0-.88,2.6,4,4,0,0,0,.88,2.64A2.93,2.93,0,0,0,401.36,1006.62Z"/><path class="cls-1" d="M411.14,999.11h0a2.92,2.92,0,0,1,1.28-1.25,3.78,3.78,0,0,1,1.83-.44,4.45,4.45,0,0,1,1.72.3,2.84,2.84,0,0,1,1.13.88,3.64,3.64,0,0,1,.61,1.4,8.34,8.34,0,0,1,.19,1.89V1008h-2v-5.9a4.4,4.4,0,0,0-.44-2.23,2,2,0,0,0-1.83-.72,3.08,3.08,0,0,0-.86.1,1.9,1.9,0,0,0-.61.28,2.64,2.64,0,0,0-.45.43,5.31,5.31,0,0,0-.32.53,1.47,1.47,0,0,0-.12.4c0,.15-.07.32-.1.5a4,4,0,0,0-.07.5c0,.17,0,.3,0,.41v5.7h-2V997.72h2Z"/><path class="cls-1" d="M426.89,988.91h2v10.53h0a4.15,4.15,0,0,1,3.59-2A4.35,4.35,0,0,1,436,999a5.63,5.63,0,0,1,1.34,3.79,6.13,6.13,0,0,1-1.32,4,4.44,4.44,0,0,1-3.61,1.61,3.93,3.93,0,0,1-2-.52,4.5,4.5,0,0,1-1.53-1.45h0V1008h-2Zm5.13,17.71a3,3,0,0,0,2.45-1.08,4.05,4.05,0,0,0,.89-2.66,4,4,0,0,0-.89-2.63,3,3,0,0,0-2.45-1.07,2.9,2.9,0,0,0-2.38,1.1,4,4,0,0,0-.88,2.6,4,4,0,0,0,.88,2.64A2.93,2.93,0,0,0,432,1006.62Z"/><path class="cls-1" d="M437.64,997.72H440l3.48,6.55,3.23-6.55h2.23l-8.35,16.21H438.3l4.05-7.66Z"/><path class="cls-1" d="M458.89,1003.87,457,1008h-2.23l7.93-17.31,7.93,17.31h-2.22l-1.89-4.16Zm3.81-8.61-2.95,6.71h5.9Z"/><path class="cls-1" d="M473.87,1008h-2V988.91h2Z"/><path class="cls-1" d="M478.76,1008h-2V988.91h2Z"/><path class="cls-1" d="M486.29,1000.15v1.65h-4.82v-1.65Z"/><path class="cls-1" d="M494,990.92a3.78,3.78,0,0,0-1.31-.42,1,1,0,0,0-.92.4,2.41,2.41,0,0,0-.4,1c0,.29-.07.52-.08.69s0,.4,0,.7v4.42H494v1.85h-2.72V1008h-2v-8.46h-.9v-1.85h.9v-5c0-2.7,1.12-4.06,3.34-4.06a3.72,3.72,0,0,1,1.37.27Z"/><path class="cls-1" d="M497.06,999.39h.06a3.24,3.24,0,0,1,1.11-1.44,2.81,2.81,0,0,1,1.72-.53,3.09,3.09,0,0,1,1.64.5l-.91,1.81a1.75,1.75,0,0,0-1.21-.42,2,2,0,0,0-2,1.23,4.93,4.93,0,0,0-.3,1.14,9.68,9.68,0,0,0-.08,1.29V1008h-2V997.72h2Z"/><path class="cls-1" d="M503.87,1003.21a3.81,3.81,0,0,0,.89,2.4,2.77,2.77,0,0,0,2.22,1,3,3,0,0,0,1.77-.49,5.13,5.13,0,0,0,1.31-1.51l1.67,1a5.26,5.26,0,0,1-2,2.06,5.36,5.36,0,0,1-2.79.76,4.75,4.75,0,0,1-3.69-1.54,5.71,5.71,0,0,1-1.37-3.88,6.09,6.09,0,0,1,1.3-4,4.57,4.57,0,0,1,3.72-1.53,4.33,4.33,0,0,1,3.6,1.53,6.19,6.19,0,0,1,1.22,3.95v.31Zm5.88-1.5a3.1,3.1,0,0,0-.91-1.88,2.71,2.71,0,0,0-1.93-.7,2.9,2.9,0,0,0-1.07.19,2.86,2.86,0,0,0-.87.53,3.27,3.27,0,0,0-.65.84,3.23,3.23,0,0,0-.34,1Z"/><path class="cls-1" d="M514.63,1003.21a3.85,3.85,0,0,0,.87,2.4,2.8,2.8,0,0,0,2.23,1,3,3,0,0,0,1.77-.49,5.13,5.13,0,0,0,1.31-1.51l1.67,1a5.12,5.12,0,0,1-2,2.06,5.39,5.39,0,0,1-2.79.76,4.77,4.77,0,0,1-3.7-1.54,5.71,5.71,0,0,1-1.36-3.88,6.09,6.09,0,0,1,1.3-4,4.57,4.57,0,0,1,3.72-1.53,4.31,4.31,0,0,1,3.59,1.53,6.08,6.08,0,0,1,1.23,3.95v.31Zm5.87-1.5a3,3,0,0,0-.92-1.88,2.7,2.7,0,0,0-1.92-.7,2.87,2.87,0,0,0-1.07.19,2.91,2.91,0,0,0-.88.53,3.19,3.19,0,0,0-.63.84,3,3,0,0,0-.35,1Z"/><path class="cls-1" d="M528.9,1000.15v1.65h-4.83v-1.65Z"/><path class="cls-1" d="M539.18,1006.42h0a4.53,4.53,0,0,1-1.54,1.45,3.89,3.89,0,0,1-2,.52,4.43,4.43,0,0,1-3.62-1.61,6.08,6.08,0,0,1-1.33-4A5.59,5.59,0,0,1,532,999a4.35,4.35,0,0,1,3.51-1.6,4.15,4.15,0,0,1,3.59,2h0V988.91h2V1008h-2Zm-3.24.2a2.94,2.94,0,0,0,2.44-1.08,4,4,0,0,0,.91-2.66,4,4,0,0,0-.91-2.63,3,3,0,0,0-2.44-1.07,2.91,2.91,0,0,0-2.38,1.1,4,4,0,0,0-.88,2.6,4.06,4.06,0,0,0,.88,2.64A2.94,2.94,0,0,0,535.94,1006.62Z"/><path class="cls-1" d="M544.4,999a5.42,5.42,0,0,1,3.93-1.58,5.49,5.49,0,1,1,0,11,5.42,5.42,0,0,1-3.93-1.58,5.59,5.59,0,0,1,0-7.81Zm.39,3.9a3.56,3.56,0,0,0,1.05,2.52,3.27,3.27,0,0,0,2.49,1.07,3.31,3.31,0,0,0,2.48-1.07,3.59,3.59,0,0,0,0-5,3.34,3.34,0,0,0-2.48-1.06,3.3,3.3,0,0,0-2.49,1.06A3.53,3.53,0,0,0,544.79,1002.9Z"/><path class="cls-1" d="M559.16,1004.29l3-7.14,3,7.14,3-6.57h2.23l-5.23,10.67-3-6.9-3,6.9-5.24-10.67h2.24Z"/><path class="cls-1" d="M573.44,999.11h0a3,3,0,0,1,1.27-1.25,3.81,3.81,0,0,1,1.83-.44,4.35,4.35,0,0,1,1.72.3,2.87,2.87,0,0,1,1.14.88,3.8,3.8,0,0,1,.61,1.4,9,9,0,0,1,.19,1.89V1008h-2v-5.9a4.3,4.3,0,0,0-.43-2.23,2,2,0,0,0-1.84-.72,3,3,0,0,0-.85.1,2.06,2.06,0,0,0-.62.28,2.25,2.25,0,0,0-.44.43,4,4,0,0,0-.33.53,2.85,2.85,0,0,0-.12.4c0,.15-.07.32-.1.5s0,.33-.07.5,0,.3,0,.41v5.7h-2V997.72h2Z"/><path class="cls-1" d="M585,1008h-2V988.91h2Z"/><path class="cls-1" d="M588.52,999a5.64,5.64,0,0,1,7.83,0,5.49,5.49,0,0,1-3.91,9.39,5.41,5.41,0,0,1-5.51-5.49A5.3,5.3,0,0,1,588.52,999Zm.4,3.9a3.58,3.58,0,0,0,1,2.52,3.29,3.29,0,0,0,2.49,1.07,3.35,3.35,0,0,0,2.5-1.07,3.64,3.64,0,0,0,0-5,3.38,3.38,0,0,0-2.5-1.06,3.31,3.31,0,0,0-2.49,1.06A3.55,3.55,0,0,0,588.92,1002.9Z"/><path class="cls-1" d="M609.43,1008h-2v-1.61h0a4.05,4.05,0,0,1-3.51,2,4.48,4.48,0,0,1-3.61-1.61,6.07,6.07,0,0,1-1.32-4,5.54,5.54,0,0,1,1.35-3.79,4.35,4.35,0,0,1,3.51-1.6,4.14,4.14,0,0,1,3.58,2h0v-1.72h2Zm-5.23-1.41a3,3,0,0,0,2.45-1.08,4.06,4.06,0,0,0,.9-2.66,4,4,0,0,0-.9-2.63,3,3,0,0,0-2.45-1.07,2.89,2.89,0,0,0-2.37,1.1,4,4,0,0,0-.89,2.6,4,4,0,0,0,.89,2.64A2.92,2.92,0,0,0,604.2,1006.62Z"/><path class="cls-1" d="M619.69,1006.42h0a4.62,4.62,0,0,1-1.54,1.45,3.84,3.84,0,0,1-2,.52,4.46,4.46,0,0,1-3.62-1.61,6.13,6.13,0,0,1-1.32-4,5.64,5.64,0,0,1,1.35-3.79,4.35,4.35,0,0,1,3.51-1.6,4.17,4.17,0,0,1,3.59,2h0V988.91h2V1008h-2Zm-3.24.2a3,3,0,0,0,2.44-1.08,4.07,4.07,0,0,0,.91-2.66,4,4,0,0,0-.91-2.63,3,3,0,0,0-2.44-1.07,2.9,2.9,0,0,0-2.38,1.1,4,4,0,0,0-.88,2.6,4.06,4.06,0,0,0,.88,2.64A2.93,2.93,0,0,0,616.45,1006.62Z"/><path class="cls-1" d="M627.35,1007.11a1.25,1.25,0,0,1-.36.9,1.28,1.28,0,0,1-.92.38,1.3,1.3,0,0,1-1.27-1.28,1.23,1.23,0,0,1,.38-.9,1.19,1.19,0,0,1,.89-.38,1.26,1.26,0,0,1,1.28,1.28Z"/><path class="cls-1" d="M638.19,1000.65a3.84,3.84,0,0,0-3-1.39,3.22,3.22,0,0,0-2.44,1.08,3.65,3.65,0,0,0-1,2.54,3.56,3.56,0,0,0,1,2.62,3.5,3.5,0,0,0,2.57,1,3.75,3.75,0,0,0,2.82-1.37v2.53a6,6,0,0,1-2.84.69,5.5,5.5,0,0,1-3.93-1.57,5.09,5.09,0,0,1-1.59-3.85,5.33,5.33,0,0,1,1.59-4,5.57,5.57,0,0,1,4-1.58,5.26,5.26,0,0,1,2.73.67Z"/><path class="cls-1" d="M641,999a5.39,5.39,0,0,1,3.92-1.58,5.49,5.49,0,1,1,0,11,5.41,5.41,0,0,1-5.51-5.49A5.3,5.3,0,0,1,641,999Zm.4,3.9a3.54,3.54,0,0,0,1,2.52,3.27,3.27,0,0,0,2.49,1.07,3.32,3.32,0,0,0,2.49-1.07,3.61,3.61,0,0,0,0-5,3.34,3.34,0,0,0-2.49-1.06,3.3,3.3,0,0,0-2.49,1.06A3.51,3.51,0,0,0,641.39,1002.9Z"/><path class="cls-1" d="M654.14,999h0a3.51,3.51,0,0,1,1.18-1.15,2.84,2.84,0,0,1,1.55-.45,3.29,3.29,0,0,1,3,1.82,3.69,3.69,0,0,1,1.33-1.33,3.56,3.56,0,0,1,1.83-.49c2.29,0,3.42,1.48,3.42,4.44V1008h-2v-5.84a4.9,4.9,0,0,0,0-.77,4.22,4.22,0,0,0-.11-.75,2.76,2.76,0,0,0-.27-.68,2.07,2.07,0,0,0-.48-.55,1.79,1.79,0,0,0-1-.26,2,2,0,0,0-1.06.26,1.8,1.8,0,0,0-.65.6,2.68,2.68,0,0,0-.36.92,5.88,5.88,0,0,0-.17,1c0,.29,0,.63,0,1V1008h-2v-5.46c0-.35,0-.64,0-.88a7.83,7.83,0,0,0-.13-.88,2.24,2.24,0,0,0-.29-.84,1.76,1.76,0,0,0-.54-.55,1.69,1.69,0,0,0-.91-.24,1.86,1.86,0,0,0-2,1.31,7.31,7.31,0,0,0-.27,1.18,12,12,0,0,0-.06,1.3V1008h-2V997.72h2Z"/><path class="cls-1" d="M311.32,1002h28.05a.66.66,0,0,0,0-1.31H311.32a.66.66,0,0,0,0,1.31Z"/><path class="cls-1" d="M684.62,1002h28a.66.66,0,0,0,0-1.31h-28a.66.66,0,0,0,0,1.31Z"/><path class="cls-3" d="M168.29,583.32C136.31,605,80.22,633.78,37,606.63a7.92,7.92,0,0,1-.79-.48s73.78,5.48,123-53.27q2.91,10.32,6,20.41Q166.73,578.35,168.29,583.32Z"/><path class="cls-4" d="M168.29,583.32C136.31,605,80.22,633.78,37,606.63c6.3,3.64,50.42,25.13,128.2-33.34Q166.73,578.35,168.29,583.32Z"/><path class="cls-5" d="M897.91,605.11c-10.37,28-31.07,108.76-26.93,147.08s8.73,103.89,4.57,110.79c-1,1.76-7.92,3.06-17.63,4-2.58.25-5.34.49-8.25.71-7.38.55-15.64,1-23.91,1.25-1.21,0-2.4.09-3.61.13-9.94.32-19.66.53-27.53.64-1.17,0-2.31,0-3.39,0-8.7.11-14.43.11-14.43.11a5.21,5.21,0,0,1-1-1.17c-1.31-2.12-3.18-7.49.3-18.86,4.83-15.89,20.28-29,20.28-39.34s0-118.06-11-134.65c-.27-.42-.57-.82-.86-1.22C773.31,659,754,653.9,743.94,657.92c-10.36,4.16-143.63,49.73-218.2-24.16,0,0-18.65,39.36-17.94,66.29s-2.78,93.22,2.75,131.21c3.73,25.63-3.24,35.22-11.35,38.73a28.76,28.76,0,0,1-11.43,2H409.05s-9.67-11,6.21-31.07,25.55-51.07,22.79-67-36.6-166.4-42.11-207.83l-1.15-1.22c-5.22-5.49-26.82-27.7-38.92-31.93-13.79-4.85-23.47-14.5-33.81-11.73-9.05,2.39-33.32,24.23-50.37,34.36a0,0,0,0,0,0,0,55.74,55.74,0,0,1-6.93,3.58s-4.14,137.42-6.91,151.22,0,58.69-89.06,73.19a47.31,47.31,0,0,0-16.68,3.52l-.05,0c-7.89,3.43-15.38,10.15-14.36,23.38,0,0-6.88,11-13.8.7,0,0-8.29,11.73-15.87,4.81s5.51-7.58,4.83-20,9-26.93,27.61-33.85,60.78-30.35,55.25-81.46c-1.59-14.72-7.14-34-14.1-55.88-.77-2.45-1.55-4.94-2.38-7.47-17-53-40.22-119.72-36-175.54,0,0,2.75-20.73-4.15-35.23s-20-48.34-7.6-70.42,84.93-105.65,109.79-126.36,69-7.6,69-7.6l98.75,17.25s116.69-15.18,145-4.82,42.13,16.57,79.4,8.28c34.31-7.62,83.66-15,112.37-8.81l.24.08c2.29.6,4.54,1.21,6.77,1.86.62.21,1.23.39,1.83.55a271.61,271.61,0,0,1,31.4,11.5c2.69,1.19,5.53,2.58,8.48,4.17l.09.06c35.49,19.24,87.3,67.75,118.83,148C947.63,467.37,908.27,577.15,897.91,605.11Z"/><path class="cls-6" d="M239.88,552.88s13-103.11,27.7-123.43c0,0,6.67,81.13-3.53,96.36S239.88,552.88,239.88,552.88Z"/><path class="cls-7" d="M392.56,549.69c1,5.28,1.74,10.44,2.23,15.2-5.22-5.49-26.82-27.7-38.92-31.93-13.79-4.85-23.47-14.5-33.81-11.73-9.05,2.39-33.32,24.23-50.37,34.36.92-1.16,30.06-37.62,31-46.3s-26.57-15.91-26.57-15.91,12.91-7.54,23.42,0c0,0,16.24-19.92,22.54-38.22,6.13-17.87,17.68-21.52,18.25-21.66-.42.53-7.23,9.11-9.54,17.88S326,469.47,325.86,470c.86-.36,28.29-12.72,39.55-51.92,0,0,7,46.25-12.36,75.3A51.52,51.52,0,0,0,375.22,478s15.27-1.69,24.34-36.43C399.56,441.6,388.53,528.77,392.56,549.69Z"/><path class="cls-6" d="M271.67,555.61a55.74,55.74,0,0,1-6.93,3.58s-.44,14.32-1.12,34.17c-1.41,41.64-3.92,107.7-5.79,117-2.74,13.8,0,58.69-89.06,73.19a47.31,47.31,0,0,0-16.68,3.52c1-.62,17-10.84,44.23-16.17,28.09-5.49,50.4-38.44,49.78-47s-.59-110.45,0-117.77a0,0,0,0,1,0,0c-1.08.53-35.59,18-64.5,18.63-.77-2.45-1.55-4.94-2.38-7.47,0,0,72.81-44.24,87.55-61.27C268.4,554.21,270.05,554.18,271.67,555.61Z"/><path class="cls-8" d="M271.67,555.61a55.74,55.74,0,0,1-6.93,3.58s-.44,14.32-1.12,34.17l-17.5,12.83a0,0,0,0,1,0,0c-1.08.53-35.59,18-64.5,18.63-.77-2.45-1.55-4.94-2.38-7.47,0,0,72.81-44.24,87.55-61.27C268.4,554.21,270.05,554.18,271.67,555.61Z"/><path class="cls-7" d="M782.39,648.94c.88,8.07,1.57,17.06,2.12,25.72q-.79-1.12-1.65-2.16c-11.36-13.93-29.31-18.4-38.92-14.58C733.65,662,602.25,707,527.39,635.33c-.55-.49-1.1-1-1.65-1.57,0,0-18.65,39.36-17.94,66.29s-2.78,93.22,2.75,131.21c3.73,25.63-3.24,35.22-11.35,38.73,5-5.32,12.94-18.3,5-42.89-11-34.18-8.84-156.93-2.58-181.59,6.11-24.16.25-58.75,0-60.17l14.72,32.35s18-86.14,12.26-113.12c3.57,12.92,14.3,58.25,2.51,100.41,0,0,137.82,53.49,198.87,7.3,54.3-41.08,63.1-118.06,64.39-134.53l-3.35,57.3s6-11.32,12.26-25.76C796,535.21,787.61,567,783.54,589.86c-2.32,13.11-3.24,23.3-1.72,27.83.88,2.6,1.48,4.57,1.89,6.11,1.28,4.89.44,5.24-.52,6.76-1.06,1.7-2.29,4.9-.88,17.64C782.33,648.44,782.37,648.68,782.39,648.94Z"/><path class="cls-9" d="M789.23,579.64s-3.53,19.3-5.52,44.16c-.19,2.22-.37,4.47-.52,6.76-.38,6-.67,12.13-.8,18.38-.15,7.87,0,15.83.47,23.56-11.36-13.93-29.31-18.4-38.92-14.58C733.65,662,602.25,707,527.39,635.33a30.07,30.07,0,0,0,.2-10.65s179.92,91.15,255.95-34.82C785.52,586.6,787.4,583.19,789.23,579.64Z"/><path class="cls-8" d="M490.5,470s-24,17.76-44.2,8S324.62,394.28,342.42,293.36,490.5,470,490.5,470Z"/><path class="cls-10" d="M291.19,374.26c-.33,5.38-2.11,9.42-5.31,12.08-4.45,3.7-11.61,4.81-21.27,3.29l-.28,0a7.57,7.57,0,0,0-5.14,1.13c1.68-5.82,5.22-12.43,12.5-15.6C283.74,369.9,289.54,373,291.19,374.26Z"/><path class="cls-7" d="M295.05,374.37a4,4,0,0,0-.18-.52,19.73,19.73,0,0,0-.86-1.94,8.05,8.05,0,0,0-.5-.91A20.08,20.08,0,0,0,256,381a20.29,20.29,0,0,0,.73,5.37,19.94,19.94,0,0,0,1.94,4.66,3.4,3.4,0,0,0,.28.42v0a19,19,0,0,0,1.81,2.53,20.09,20.09,0,0,0,35.41-13A19.71,19.71,0,0,0,295.05,374.37Zm-35.86,16.36c1.68-5.82,5.22-12.43,12.5-15.6,12.05-5.23,17.85-2.12,19.5-.87-.33,5.38-2.11,9.42-5.31,12.08-4.45,3.7-11.61,4.81-21.27,3.29l-.28,0A7.57,7.57,0,0,0,259.19,390.73Z"/><path class="cls-6" d="M226.23,224c-4.89-4.45-9.22-9.65-10.51-14.84-3.46-13.81-9-42.12-31.08-13.81-17.56,22.5-30.32,89.05-34.82,115.42C170.92,284.05,204,246.36,226.23,224Z"/><path class="cls-7" d="M297.19,208.43s42.81-24.85,61.45-42.12,31.08-17.95,52.48-11.73S503,166.31,543,187.37s52.46,27.68,42.46,37.49-21.74,9.12-15.53,25,26.24,51.1,1.38,68.36S514,429.39,511.93,437.67,496.05,491.53,451.86,466s-93.22-66.87-111.17-132.57c0,0,0-61.45-14.5-71.12S297.19,208.43,297.19,208.43Z"/><path class="cls-8" d="M303.16,363.31c-.62,5.55-5.76,9.52-8.11,11.06a1,1,0,0,1-.22.14c-.51.33-.86.51-.91.55l-1.27.7-1-1.08a2.61,2.61,0,0,0-.49-.42c-1.65-1.25-7.45-4.36-19.5.87-7.28,3.17-10.82,9.78-12.5,15.6a5.48,5.48,0,0,0-.22.73v0a36.67,36.67,0,0,0-1,5.37,32.09,32.09,0,0,0-.33,4.85,1.84,1.84,0,0,1-1.78,1.9h0a1.83,1.83,0,0,1-1.83-1.77,42.31,42.31,0,0,1,2.81-15.45c2.24-5.68,6.27-11.46,13.48-14.6,13.16-5.73,20.32-2.45,23-.58l.31-.2c2-1.39,5.59-4.38,6-8.09a1.83,1.83,0,1,1,3.64.4Z"/><path class="cls-11" d="M241.18,367.16a38.51,38.51,0,0,0-3,7.1,37,37,0,0,0-1.42,7.52,35.41,35.41,0,0,0-.09,3.86c0,.65,0,1.3.05,1.95s.13,1.31.18,2c.07,1.32.37,2.63.51,4s.53,2.67.69,4.08l0,.22a1.84,1.84,0,0,1-3.42,1.14,40.51,40.51,0,0,1-2.11-4,34.34,34.34,0,0,1-1.43-4.37,30.29,30.29,0,0,1-.84-9.32,27,27,0,0,1,2.42-9.16,20,20,0,0,1,5.82-7.54,1.83,1.83,0,0,1,2.74,2.31Z"/><path class="cls-8" d="M294.89,373.51a1.94,1.94,0,0,1,0,.34c0,.22,0,.44,0,.66-.38,6.41-2.6,11.32-6.61,14.65-5.29,4.39-13.43,5.76-24.18,4.1l-.27,0a4.29,4.29,0,0,0-3,.79,11.08,11.08,0,0,0-2.85,2.84,2.94,2.94,0,0,0-.24.33,1.84,1.84,0,0,1-1.56.86,1.6,1.6,0,0,1-.95-.3,1.81,1.81,0,0,1-.59-2.5,15.12,15.12,0,0,1,4.1-4.2,3.52,3.52,0,0,1,.5-.31,7.57,7.57,0,0,1,5.14-1.13l.28,0c9.66,1.52,16.82.41,21.27-3.29,3.2-2.66,5-6.7,5.31-12.08,0-.28,0-.57,0-.86a1.81,1.81,0,0,1,1.88-1.78,1.75,1.75,0,0,1,.9.29A1.79,1.79,0,0,1,294.89,373.51Z"/><circle class="cls-8" cx="274.6" cy="381.01" r="8.62"/><path class="cls-11" d="M304.8,293.94a10.65,10.65,0,0,0-.17,2.63,15.56,15.56,0,0,0,.37,2.86,21,21,0,0,0,2.06,5.52,29.93,29.93,0,0,0,3.3,5c1.25,1.65,2.66,2.93,4.21,4.8a64.27,64.27,0,0,1,7.4,11.26,118.67,118.67,0,0,1,5.56,12A142.92,142.92,0,0,1,335,363.36a96.07,96.07,0,0,1,1.7,26.4,1.83,1.83,0,0,1-3.65-.19v-.05a109.86,109.86,0,0,0-2.77-25.18A153.35,153.35,0,0,0,322.69,340c-3.13-7.85-6.85-15.67-11.87-22.08-1.14-1.51-2.86-3.25-4.17-5.1a35.1,35.1,0,0,1-3.59-5.92,25.13,25.13,0,0,1-2.08-6.74,19.4,19.4,0,0,1-.25-3.59,13.86,13.86,0,0,1,.59-3.79,1.82,1.82,0,0,1,3.53.9Z"/><path class="cls-11" d="M304.55,514.85c1.56-3.56,3.15-7.16,4.67-10.77s3.07-7.2,4.52-10.84q4.45-10.85,8.34-21.87l1.86-5.54,1.7-5.57,1.53-5.62c.59-1.94,1.06-3.89,1.75-5.81l1-2.88c.37-1,.79-1.91,1.18-2.86s.89-1.88,1.35-2.81a22.8,22.8,0,0,1,1.64-2.74,24.26,24.26,0,0,1,2-2.6l1.27-1.18a14.63,14.63,0,0,1,1.48-1.06,7,7,0,0,1,7.78.07,1.63,1.63,0,0,1-1,3l-1.21-.05a4.39,4.39,0,0,0-.7-.2,2.54,2.54,0,0,0-.87,0,5,5,0,0,0-.89.22,10.26,10.26,0,0,0-.89.52,9.72,9.72,0,0,0-.88.73l-.83.88A18.62,18.62,0,0,0,337.9,440a45.81,45.81,0,0,0-4.16,10.35c-.57,1.81-.94,3.72-1.43,5.57l-1.48,5.8-1.67,5.75-1.82,5.7c-2.51,7.56-5.51,14.93-8.74,22.17a237.51,237.51,0,0,1-10.81,21.21,1.83,1.83,0,0,1-3.26-1.66Z"/><path class="cls-11" d="M262.25,496.71a101,101,0,0,1,.28-13.61c.35-4.48.9-8.92,1.5-13.34l1.79-13.21c.59-4.39,1.13-8.76,1.27-13v-.16a1.85,1.85,0,0,1,3.59-.55,45.41,45.41,0,0,1,2.14,14.06,117.31,117.31,0,0,1-.59,13.81,113.9,113.9,0,0,1-2.15,13.54,72.32,72.32,0,0,1-4.23,13.14,1.89,1.89,0,0,1-3.6-.65Z"/><path class="cls-11" d="M143.84,419.36c3.75.9,7.7,1.7,11.56,2.24a86,86,0,0,0,11.63.87,69.75,69.75,0,0,0,11.55-.74,104.82,104.82,0,0,0,11.52-2.38l.14,0a1.84,1.84,0,0,1,1.38,3.36,40.39,40.39,0,0,1-11.83,5,51.15,51.15,0,0,1-6.37,1.23,63.65,63.65,0,0,1-6.47.28,53,53,0,0,1-12.75-1.69,43.5,43.5,0,0,1-11.9-4.86,1.84,1.84,0,0,1,1.38-3.36Z"/><path class="cls-11" d="M144.09,440.21A112.82,112.82,0,0,0,158,444.09a82.49,82.49,0,0,0,14.21,1.75c2.38.11,4.75,0,7.12-.15,1.19-.08,2.35-.31,3.53-.43l1.77-.21,1.74-.39c4.71-.79,9.15-2.59,13.63-4.43l.15-.06a1.83,1.83,0,0,1,1.66,3.24,50.23,50.23,0,0,1-14.19,6.45,53,53,0,0,1-15.54,1.95,61.14,61.14,0,0,1-15.43-2.18,53.25,53.25,0,0,1-14.27-6.19,1.84,1.84,0,0,1,1.59-3.28Z"/><path class="cls-11" d="M144.14,468.54a122.48,122.48,0,0,0,12.46,4.07,70.73,70.73,0,0,0,12.67,2.23,49.23,49.23,0,0,0,6.31,0,39.67,39.67,0,0,0,6.16-.95,33.51,33.51,0,0,0,11.35-5.26l0,0a1.83,1.83,0,0,1,2.4,2.75,29.92,29.92,0,0,1-5.57,4.68,30.72,30.72,0,0,1-6.64,3.18A37.9,37.9,0,0,1,168.87,481a52.54,52.54,0,0,1-14-2.89,51.32,51.32,0,0,1-12.59-6.39A1.84,1.84,0,0,1,144,468.5Z"/><path class="cls-11" d="M147.31,495.49a54.27,54.27,0,0,0,11.44,2.93,50.07,50.07,0,0,0,23.37-1.94c1.94-.49,3.74-1.4,5.65-2.07s3.64-1.77,5.54-2.58l.22-.09a1.83,1.83,0,0,1,1.78,3.17c-1.76,1.27-3.54,2.55-5.41,3.69-1,.54-1.94,1-2.91,1.56a19.55,19.55,0,0,1-3,1.37l-3.1,1.22-3.22.89a24.21,24.21,0,0,1-3.28.7c-1.11.15-2.2.42-3.32.46a40.87,40.87,0,0,1-13.37-.81,33.61,33.61,0,0,1-12.29-5.38,1.83,1.83,0,0,1,1.72-3.19Z"/><path class="cls-11" d="M152.84,523.91a90.11,90.11,0,0,0,9.4,1.49,56.51,56.51,0,0,0,9.37.2c1.56,0,3.08-.34,4.63-.48,1.52-.31,3.07-.53,4.57-1a72.88,72.88,0,0,0,9.06-3.09L190,521a1.84,1.84,0,0,1,1.83,3.14,31.67,31.67,0,0,1-9.19,5.59,33.88,33.88,0,0,1-10.61,2.44,35.31,35.31,0,0,1-10.81-.79,29.57,29.57,0,0,1-10-4.18,1.84,1.84,0,0,1,1.4-3.33Z"/><path class="cls-11" d="M161,555.7c3,.37,6.14.64,9.19.76a71.57,71.57,0,0,0,9.16-.25,49.45,49.45,0,0,0,8.9-1.62,52.23,52.23,0,0,0,8.5-3.23l.16-.07a1.83,1.83,0,0,1,1.86,3.12,32,32,0,0,1-8.88,5.11,38.37,38.37,0,0,1-10,2.35,45.39,45.39,0,0,1-10.16-.12,36.93,36.93,0,0,1-9.83-2.55,1.83,1.83,0,0,1,.93-3.51Z"/><path class="cls-11" d="M172.52,591.77a.83.83,0,0,0-.29-.24s.09,0,.13,0l.33,0,.7,0,1.4,0,2.76,0c1.82,0,3.6-.06,5.36-.14s3.48-.28,5.21-.49,3.39-.64,5.24-1l.21,0a1.88,1.88,0,0,1,1.69,3.17,15.69,15.69,0,0,1-5.57,3.57,21.55,21.55,0,0,1-6.4,1.37,23.5,23.5,0,0,1-6.39-.48,21.59,21.59,0,0,1-3.07-.89c-.49-.19-1-.4-1.48-.63l-.73-.38-1.23-.72a1.82,1.82,0,0,1-.43-2.55A1.84,1.84,0,0,1,172.52,591.77Z"/><path class="cls-11" d="M183.43,623.73c3.07.39,6.27.76,9.37,1a84.94,84.94,0,0,0,9.29.17,50.76,50.76,0,0,0,9-1.34,37.21,37.21,0,0,0,8.34-3.43l.12-.07a1.83,1.83,0,0,1,2.12,3,27.85,27.85,0,0,1-9,5.51,39.11,39.11,0,0,1-10.25,2.1,46.91,46.91,0,0,1-10.27-.52,40.25,40.25,0,0,1-9.83-2.84,1.84,1.84,0,0,1,1-3.51Z"/><path class="cls-11" d="M189.64,647.26c2.4.21,5,.43,7.5.42a66.82,66.82,0,0,0,7.49-.33,65.28,65.28,0,0,0,7.48-1.35c1.26-.25,2.47-.69,3.75-1s2.5-.8,3.82-1.12l.19,0a1.85,1.85,0,0,1,1.55,3.27,40.21,40.21,0,0,1-3.57,2.45,32.26,32.26,0,0,1-3.91,1.93l-2,.82c-.7.23-1.41.41-2.11.62a30.41,30.41,0,0,1-4.34.91,29.38,29.38,0,0,1-8.88-.05,20.79,20.79,0,0,1-8.45-3.2,1.85,1.85,0,0,1,1.2-3.36Z"/><path class="cls-11" d="M196.53,679.09l7.37,1.58a59.9,59.9,0,0,0,7.29,1.07,31,31,0,0,0,7.15-.34,27,27,0,0,0,6.84-2.19l.17-.07a1.83,1.83,0,0,1,1.92,3.08,21.89,21.89,0,0,1-7.67,4.26,28.17,28.17,0,0,1-8.68,1.11,32.29,32.29,0,0,1-8.45-1.42,24.86,24.86,0,0,1-7.61-3.82,1.86,1.86,0,0,1,1.52-3.29Z"/><path class="cls-11" d="M194.13,708.38c2.55.84,5.28,1.64,7.94,2.23a54.55,54.55,0,0,0,8,1.32,31.71,31.71,0,0,0,7.87-.39,22.13,22.13,0,0,0,7.09-2.93l.12-.07a1.83,1.83,0,0,1,2.19,2.91,21.11,21.11,0,0,1-8.33,4.52,29.47,29.47,0,0,1-9.27.84,37.67,37.67,0,0,1-8.94-1.59,40.1,40.1,0,0,1-8.31-3.54,1.84,1.84,0,0,1,1.5-3.33Z"/><path class="cls-11" d="M184.21,729.78a60.2,60.2,0,0,0,5.78,3.48,38.76,38.76,0,0,0,6.15,2.59c1,.37,2.12.57,3.19.84a32.49,32.49,0,0,0,3.27.43,34.4,34.4,0,0,0,6.71-.17l.18,0a1.83,1.83,0,0,1,.76,3.56,23.94,23.94,0,0,1-7.76,1.52,24.31,24.31,0,0,1-7.91-1.07,27.13,27.13,0,0,1-7.19-3.3,24.1,24.1,0,0,1-5.83-5.33,1.83,1.83,0,0,1,2.48-2.64Z"/><path class="cls-11" d="M171.91,743.64c1.57,1.35,3.18,2.88,4.81,4.18a50.78,50.78,0,0,0,5.05,3.68c.87.57,1.79,1,2.69,1.54s1.86.93,2.85,1.26a49.36,49.36,0,0,0,6.1,1.92l.17,0a1.85,1.85,0,0,1-.33,3.61,22.35,22.35,0,0,1-7.5-.44,23.85,23.85,0,0,1-7.07-2.8,24.11,24.11,0,0,1-5.92-4.7,19.42,19.42,0,0,1-4-6.44,1.86,1.86,0,0,1,1.12-2.37,1.83,1.83,0,0,1,1.83.33Z"/><path class="cls-11" d="M321.84,519.4c.33-.18.55-.23.94-.45l1.12-.62c.75-.44,1.51-.93,2.25-1.41l2.19-1.56,2.09-1.71c1.42-1.1,2.68-2.41,4-3.61s2.55-2.54,3.67-4A82.73,82.73,0,0,0,349.85,488,114.38,114.38,0,0,0,357,467.33c.52-1.77.85-3.59,1.2-5.42s.68-3.64,1.08-5.47c.58-3.68,1-7.4,1.66-11.13l0-.16a1.83,1.83,0,0,1,2.12-1.49,1.85,1.85,0,0,1,1.51,1.73c.15,3.85.28,7.74.19,11.63-.13,1.94-.32,3.88-.48,5.82l-.25,2.93c-.1,1-.33,1.92-.49,2.89l-1.06,5.79c-.41,1.93-1,3.8-1.57,5.71a40.38,40.38,0,0,1-1.87,5.63c-.75,1.83-1.43,3.7-2.26,5.51a68,68,0,0,1-13.59,19.63c-1.38,1.45-3,2.67-4.49,4-.77.63-1.62,1.19-2.43,1.78s-1.62,1.17-2.5,1.67-1.73,1-2.61,1.52l-2.73,1.33c-1,.37-1.9.74-2.88,1.08l-1.53.42a15.18,15.18,0,0,1-1.81.3,1.76,1.76,0,0,1-1.08-3.28Z"/><path class="cls-11" d="M377,478.54a41,41,0,0,1-5.06,10.84,42.64,42.64,0,0,1-7.82,9,39.58,39.58,0,0,1-10,6.53,38.2,38.2,0,0,1-5.56,2.14c-1.89.62-3.86.91-5.78,1.37a1.83,1.83,0,0,1-.89-3.54l.2-.06a47,47,0,0,0,10.23-3.65,38.57,38.57,0,0,0,8.92-6,43.6,43.6,0,0,0,7.15-8.12,46.58,46.58,0,0,0,5.09-9.49l.06-.15a1.82,1.82,0,0,1,3.45,1.18Z"/><path class="cls-7" d="M415.26,840.9c-15.33,19.34-6.85,30.3-6.25,31-15.83-11.71-7.54-28.28,9-54.5s-18.64-98.73-42.8-124.28c-18.49-19.54-29.29-81.1-35.63-120.7-1.94-12.18-3.46-22.28-4.63-28.45-4.89-25.61-20.83-18.56-21.58-18.22,3.53-2.34,6.53-4,8.68-4.55,10.34-2.77,20,6.88,33.81,11.73s40.07,33.15,40.07,33.15c1.69,12.65,6,35.52,11.3,61.59,12,59.26,28.91,135.2,30.81,146.24C440.81,789.83,431.15,820.89,415.26,840.9Z"/><path class="cls-7" d="M409.05,872c1.93,1.43,4.39,1.31,7.21,0Z"/><path class="cls-11" d="M395,473.92a156.07,156.07,0,0,1,2.61,23.28c.36,7.65.36,15.22.28,22.79l-.18,22.64v23a1.89,1.89,0,0,1-1.89,1.89,1.87,1.87,0,0,1-1.63-.94,79.23,79.23,0,0,1-8.32-22.72,133.57,133.57,0,0,1-2.7-23.76,128.38,128.38,0,0,1,1.46-23.68,104.17,104.17,0,0,1,2.54-11.64,65.91,65.91,0,0,1,4.19-11.38,1.93,1.93,0,0,1,2.59-.88,1.89,1.89,0,0,1,1,1.33Z"/><path class="cls-11" d="M524.08,463.55c2.06,6.93,3.64,13.92,5.1,20.95s2.68,14.09,3.74,21.19a402.19,402.19,0,0,1,4.07,42.9c.22,3.58.25,7.19.32,10.79s.13,7.2,0,10.8L537,581l-.83,10.8c-1.41,14.37-3.77,28.79-8.7,42.47a1.83,1.83,0,0,1-3.52-1v0a268.37,268.37,0,0,0,4.29-41.93c.53-14.06,0-28.19-.65-42.29s-1.88-28.21-3.17-42.33l-4-42.43v0a1.84,1.84,0,0,1,3.59-.7Z"/><path class="cls-11" d="M551,469.72a163.28,163.28,0,0,1,2.2,23.5A152.92,152.92,0,0,1,552,516.83,111.14,111.14,0,0,1,546.53,540a73.86,73.86,0,0,1-5.12,10.88,55,55,0,0,1-7.29,9.61,1.84,1.84,0,0,1-2.82-2.33l0,0a81.88,81.88,0,0,0,10.5-19.86,106.16,106.16,0,0,0,5.4-22.08,168.23,168.23,0,0,0,1.55-22.9,181,181,0,0,0-1.37-23v-.06a1.83,1.83,0,0,1,3.62-.54Z"/><path class="cls-11" d="M810.57,371.79a137.46,137.46,0,0,1,5.3,17.4c1.46,5.87,2.56,11.82,3.51,17.78.55,3,.84,6,1.2,9s.71,6,.88,9,.49,6,.62,9.06l.18,9.07c.12,3,0,6.05-.07,9.08s-.15,6.06-.28,9.08l-.77,9.06c-.28,3-.44,6.05-.92,9l-1.23,9-.67,4.49-.89,4.46c-1.26,5.92-2.22,11.92-3.89,17.75s-2.88,11.79-5,17.48l-2.86,8.62-1.44,4.31-1.55,4.21c-4.19,11.19-8.49,22.35-13.08,33.41s-9.42,22-14.67,32.83q-2,4-4.1,8t-4.33,7.94c-1.54,2.61-3.1,5.21-4.82,7.75-.85,1.27-1.78,2.51-2.75,3.75-.52.61-1,1.22-1.58,1.82-.3.3-.55.6-.92.91l-.54.46-.37.26-.19.12a2.68,2.68,0,0,1-.48.23,1.83,1.83,0,0,1-1.23-3.45,1,1,0,0,0-.23.1l0,0,.08-.07.27-.32a8.59,8.59,0,0,0,.57-.75c.4-.51.76-1.14,1.14-1.72.72-1.22,1.43-2.47,2.08-3.77,1.36-2.56,2.6-5.23,3.8-7.91,2.42-5.36,4.68-10.82,6.84-16.33,1.13-2.73,2.19-5.5,3.25-8.27s2.13-5.53,3.13-8.32l3.14-8.32,3-8.37q6.09-16.74,12-33.58c3.87-11.18,7.42-22.27,10.29-33.66A323.43,323.43,0,0,0,813.16,443l.21-8.8-.09-8.8c0-2.94-.14-5.87-.32-8.81s-.28-5.87-.57-8.8c-.43-5.86-1.13-11.71-2-17.53l-.66-4.37-.79-4.34c-.53-2.88-1.14-5.8-1.85-8.57l0-.09a1.83,1.83,0,0,1,3.49-1.11Z"/><path class="cls-11" d="M786,681.24c-4-9.21-6.32-18.83-8-28.59A158.66,158.66,0,0,1,776.06,623l.07-3.72.27-3.71c.19-2.47.36-5,.66-7.41a143,143,0,0,1,2.53-14.66,119.66,119.66,0,0,1,9.74-28,1.84,1.84,0,0,1,2.47-.85,1.87,1.87,0,0,1,1,1.87v.09c-1.14,9.68-2.77,19-3.6,28.46-.6,4.68-.84,9.41-1.28,14.1-.2,2.35-.23,4.71-.4,7.06l-.21,3.53-.1,3.53c-.36,9.43-.26,18.88.15,28.35s1.1,19,2.08,28.51v.11a1.84,1.84,0,0,1-3.52.93Z"/><path class="cls-6" d="M982.85,753.87c.26-1.17,5.49-25.3-23.49-44.85s-22.41-51.1-22.11-52.43c0,0,0,0,0,0-17.45-29.31-23.13-67.81-24.65-97.14,8.43-31,16.33-72.31,14.12-114.07h0c10.89,28.42,11.2,79.33,6.37,118s14.63,82.18,14.63,82.18C1006.45,687.71,983.51,752.06,982.85,753.87Z"/><path class="cls-7" d="M756.9,657.1c-.26,25.5-11.22,53.24-13.85,83.21q-.37,4-.5,8.08c-1.39,41.43,1,53.14-2.49,59.35s-15.88,14.5-11,34.53S718,868.51,718,868.51s-7.37.87-17.94,1.83c-6.87.62-15.1,1.26-23.55,1.76l-3.89.21c-9.59.47-19.21.68-27.22.31-1.22-.07-2.38-.13-3.52-.23-6.88-.5-12.18-1.51-14.65-3.32a7.12,7.12,0,0,1-.64-.56c-9.28-9.67,8.55-30.38,12.7-35.21s21.13-65.58,12.16-102.87c-3.19-13.23-10.13-26.14-17.73-37.26a212.47,212.47,0,0,0-14.59-18.71c60.26,6.07,118.16-13.85,124.85-16.53C747.4,656.55,752,656.28,756.9,657.1Z"/><path class="cls-8" d="M756.9,657.1c-.26,25.5-11.22,53.24-13.85,83.21-11.54-35-21.19-51.74-49.53-43.95-18.46,5.07-42.73,1-59.84-3.19a212.47,212.47,0,0,0-14.59-18.71c60.26,6.07,118.16-13.85,124.85-16.53C747.4,656.55,752,656.28,756.9,657.1Z"/><path class="cls-3" d="M822.16,869.12c-9.95.33-19.66.53-27.53.64,1.11-12.8,4.45-35.15,13.85-33.66C817.7,837.53,821.16,856.19,822.16,869.12Z"/><path class="cls-3" d="M849.66,867.75c-7.37.54-15.64,1-23.9,1.24,1-11.6,3.83-32.17,12.08-30.8C845.71,839.47,848.75,856,849.66,867.75Z"/><path class="cls-3" d="M791.23,869.8c-8.7.1-14.42.1-14.42.1a4.85,4.85,0,0,1-1-1.18c1.59-9.94,4.93-25.81,9.94-24.25S791.48,859.81,791.23,869.8Z"/><path class="cls-12" d="M672.58,872.31c-9.59.47-19.21.68-27.22.31,1.28-13,4.74-33,13.69-31.63C667.83,842.37,671.4,859.53,672.58,872.31Z"/><path class="cls-12" d="M700,870.34c-6.87.62-15.1,1.26-23.55,1.76,1.12-11.79,4.1-30.29,11.91-29C695.76,844.3,698.88,858.86,700,870.34Z"/><path class="cls-12" d="M641.84,872.39c-6.88-.5-12.18-1.51-14.65-3.32,1.78-9.57,4.85-21,9.16-19.7C640.9,850.78,641.9,862.72,641.84,872.39Z"/><path class="cls-3" d="M460,872H432.6c1.22-12.92,4.62-34.05,13.78-32.6S459,859.09,460,872Z"/><path class="cls-3" d="M487.64,872h-24c1-11.66,3.88-31.85,12-30.51S486.81,860.23,487.64,872Z"/><path class="cls-3" d="M429.14,872H413.73c1.6-9.94,4.93-25.76,9.94-24.21C428.42,849.23,429.31,862.09,429.14,872Z"/><path class="cls-10" d="M306.17,515.7s-46.72,86-127,101.67c0,0-43.57,13.62-83.59-8.44h0c4,.63,131.68,20,168.37-111.87,0,0,10.36-8.29,26.93,0a41.23,41.23,0,0,1,6.39,3.88C307.17,508.25,306.17,515.7,306.17,515.7Z"/><path class="cls-3" d="M306.17,515.7s-46.72,86-127,101.67c0,0-43.57,13.62-83.59-8.44h0c3.22,1.05,94,29.39,151.05-34.47,41.63-46.64,49.5-66.2,50.64-73.52C307.17,508.25,306.17,515.7,306.17,515.7Z"/><path class="cls-8" d="M407.24,627.7c-14.52-10-25.92-19.72-32-28.08-13.33-18.26-26.31-24.94-35.63-27.17-1.94-12.18-3.46-22.28-4.63-28.45-4.89-25.61-20.83-18.56-21.58-18.22,3.53-2.34,6.53-4,8.68-4.55,10.34-2.77,20,6.88,33.81,11.73s40.07,33.15,40.07,33.15C397.63,578.76,402,601.63,407.24,627.7Z"/><path class="cls-6" d="M532.73,257.13c11.78,32.95,8.83,51.26-10.45,74.45s-41,104-46.63,117.3-50.74-29.52-75.15-58.15-41.87-94.54-41.68-112.84c.11-10.22-5.66-23.45-10.77-33.17-4.06-7.73-7.72-13.22-7.72-13.22s-8.28-12.09,5.2-23.12,39.1-25.2,39.1-25.2,16.88-10.47,31.63,0c10,7.13,72.72,23.44,112.06,33.2,18.66,4.63,32.06,7.79,32.06,7.79S520.94,224.17,532.73,257.13Z"/><path class="cls-7" d="M527.64,501.12a20.21,20.21,0,0,1,1,3.45C528.14,502.74,527.77,501.55,527.64,501.12Z"/><path class="cls-7" d="M897.91,605.11c-10.37,28-31.07,108.76-26.93,147.08s8.73,103.89,4.57,110.79c-1,1.76-7.92,3.06-17.63,4,3.52-7.43,14.85-35.43,7.58-72.88-8.55-43.94-1.22-117.35,7.32-145.95s48.79-171.85,33-224.7a259.36,259.36,0,0,1,11.55,37.35c-.64-4.91-21.88-162.2-122.73-228.51,35.49,19.24,87.3,67.75,118.83,148C947.63,467.37,908.27,577.15,897.91,605.11Z"/><path class="cls-6" d="M265.41,777.32l.57-.27S264.08,779.54,265.41,777.32Z"/><path class="cls-13" d="M728.8,247s83.06,1.63,120.86,99.27C849.66,346.23,835,234.34,728.8,247Z"/><path class="cls-13" d="M258.54,377.12S270,358.81,288,367.28C288,367.28,269.64,352.41,258.54,377.12Z"/><path class="cls-13" d="M267.58,396.23s21.55,4.92,27.31-12.36C294.89,383.87,291.15,406.18,267.58,396.23Z"/><path class="cls-7" d="M266.77,402.29s26.1,8.57,32.73-19.86c0,0,.8,19.06-9.15,25S266.77,402.29,266.77,402.29Z"/><circle class="cls-10" cx="268.97" cy="385.43" r="2.99"/><path class="cls-13" d="M139.31,389.64s18.88,24.25,51.55,11.47C190.86,401.11,152.1,425.8,139.31,389.64Z"/><path class="cls-13" d="M276.1,478s7.92-7.44,5.13-36.21,17.13-.27,10,14.25S276.1,478,276.1,478Z"/><path class="cls-1" d="M220.55,579.64s42.91-36.65,44.91-70.35c0,0,7.7-8.4,13.09-4.72S259.65,564.68,220.55,579.64Z"/><path class="cls-7" d="M421.45,695.64s23.59,13,46.48.7C467.93,696.34,435.23,725,421.45,695.64Z"/><path class="cls-7" d="M416.26,656.64s5.78-21.11,43.75,0C460,656.64,419.51,617.38,416.26,656.64Z"/><path class="cls-7" d="M415.41,667.21s13.79-22.28,44.6,0C460,667.21,431.55,658.66,415.41,667.21Z"/><path class="cls-7" d="M421.45,684.71s16,11.7,42.22,0C463.67,684.71,436.29,709.22,421.45,684.71Z"/><path class="cls-7" d="M801.93,736.09s23.6,13,46.48.69C848.41,736.78,815.72,765.4,801.93,736.09Z"/><path class="cls-7" d="M796.74,697.08s5.79-21.11,43.75,0C840.49,697.08,800,657.82,796.74,697.08Z"/><path class="cls-7" d="M795.9,707.65s13.79-22.28,44.59,0C840.49,707.65,812,699.1,795.9,707.65Z"/><path class="cls-7" d="M801.93,725.15s16,11.7,42.23,0C844.16,725.15,816.78,749.67,801.93,725.15Z"/><path class="cls-14" d="M661,764.31s23.6,13,46.48.7C707.52,765,674.83,793.63,661,764.31Z"/><path class="cls-14" d="M655.85,725.31s5.79-21.11,43.75,0C699.6,725.31,659.11,686.05,655.85,725.31Z"/><path class="cls-14" d="M655,735.88s13.79-22.28,44.59,0C699.6,735.88,671.15,727.33,655,735.88Z"/><path class="cls-14" d="M661,753.38s16,11.7,42.23,0C703.27,753.38,675.89,777.89,661,753.38Z"/><path class="cls-2" d="M982.85,753.87c.26-1.17,5.49-25.3-23.49-44.85s-22.41-51.1-22.11-52.43c0,0,0,0,0,0s11.6,13.62,10.49-11C1006.45,687.71,983.51,752.06,982.85,753.87Z"/><path class="cls-13" d="M160.46,312.34s38.66,25.79,55.74-19,27.15-70.17,55.76-72.84c0,0-23.35-6.1-35.28,4.88S159.63,299.19,160.46,312.34Z"/><path class="cls-13" d="M146.35,429.45s25.62,13.86,55.37-3.56C201.72,425.89,170.47,455.92,146.35,429.45Z"/><path class="cls-13" d="M149.82,457.29s17.3,14,47.94,0C197.76,457.29,171.32,479.26,149.82,457.29Z"/><path class="cls-13" d="M149.82,483.29s20.4,10.94,38.2-2.34C188,481,172.54,505.62,149.82,483.29Z"/><path class="cls-13" d="M152.09,509s28,6.11,43.6-7.83C195.69,501.12,174.63,528.87,152.09,509Z"/><path class="cls-13" d="M160.45,538.45s20.38,4.31,32.88-9.44C193.33,529,177.31,555.54,160.45,538.45Z"/><path class="cls-13" d="M168.77,573.29s21.54,2.16,29-7.18C197.76,566.11,183.17,588.26,168.77,573.29Z"/><path class="cls-13" d="M188,633.76s15.52,3.47,32.53-6C220.55,627.81,203.49,648.52,188,633.76Z"/><path class="cls-13" d="M195.69,662.26s18.22,2.83,24.86-5C220.55,657.3,210,678.66,195.69,662.26Z"/><path class="cls-13" d="M197.76,690.16s18,4.63,27.69,0C225.45,690.16,211.06,704.56,197.76,690.16Z"/><path class="cls-13" d="M194.31,719.69a30.27,30.27,0,0,0,26.24,2.44S202.93,735.56,194.31,719.69Z"/><path class="cls-13" d="M181.83,739.6s13.17,9.1,25.6,5C207.43,744.57,191.39,760.73,181.83,739.6Z"/><path class="cls-13" d="M167,753.38s5.92,11.54,18.73,10.89C185.69,764.27,169,776.69,167,753.38Z"/><path class="cls-13" d="M236.68,433.12s-21.85,19.71-16.13,41.47,4.9,48,4.9,48,10.65-31.1,11.23-52.48S236.68,433.12,236.68,433.12Z"/><path class="cls-7" d="M551,564.89S593.33,459.64,560.38,370C560.38,370,616.71,446.7,551,564.89Z"/><path class="cls-11" d="M528.32,216.38c-42.05-3.68-103.84-10.26-115.85-17.71-18.52-11.51-44.3,11.52-54.33,20.89-7.89,7.36-9.69,20-10.09,25.16-4.06-7.73-7.72-13.22-7.72-13.22s-8.28-12.09,5.2-23.12,39.1-25.2,39.1-25.2,16.88-10.47,31.63,0C426.26,190.31,489,206.62,528.32,216.38Z"/></svg>